<?xml version="1.0" standalone="no"?>
<!DOCTYPE svg PUBLIC "-//W3C//DTD SVG 20010904//EN"
 "http://www.w3.org/TR/2001/REC-SVG-20010904/DTD/svg10.dtd">
<svg version="1.0" xmlns="http://www.w3.org/2000/svg"
 width="320.000000pt" height="320.000000pt" viewBox="0 0 320.000000 320.000000"
 preserveAspectRatio="xMidYMid meet">

<g transform="translate(0.000000,320.000000) scale(0.100000,-0.100000)"
fill="#000000" stroke="none">
<path d="M0 1600 l0 -1600 1600 0 1600 0 0 763 c0 718 -1 767 -19 842 -84 348
-388 624 -749 680 -51 8 -72 27 -72 64 0 35 28 61 67 61 73 0 263 -62 373
-122 132 -71 283 -211 361 -333 l39 -60 0 653 0 652 -1600 0 -1600 0 0 -1600z
m2517 544 c255 -84 460 -286 544 -535 33 -100 35 -125 12 -151 -19 -21 -68
-24 -87 -5 -7 6 -23 46 -35 87 -73 241 -267 432 -499 491 -81 20 -109 68 -70
117 14 17 78 15 135 -4z m-44 -246 c152 -59 292 -208 343 -366 19 -62 11 -95
-30 -114 -36 -16 -69 9 -85 63 -43 149 -158 265 -309 314 -75 24 -96 75 -46
114 29 23 45 21 127 -11z m-1919 -81 c16 -12 16 -17 -10 -92 -27 -76 -28 -91
-32 -300 -3 -171 -7 -227 -19 -250 -24 -48 -44 -65 -74 -65 -66 0 -138 120
-205 338 -21 67 -41 119 -45 115 -12 -14 -28 -245 -22 -313 3 -36 12 -74 20
-86 17 -27 7 -53 -24 -65 -38 -14 -43 -12 -66 39 -19 42 -22 61 -20 173 2 70
7 158 13 195 5 38 10 115 10 171 0 98 1 103 25 119 30 20 84 12 109 -15 10
-11 21 -49 27 -87 17 -121 110 -402 150 -455 24 -33 42 -16 35 35 -3 22 -2
124 3 226 10 200 30 284 74 315 26 18 29 18 51 2z m1551 -10 c13 -20 13 -29 3
-58 -18 -46 -18 -548 -1 -602 10 -34 10 -40 -8 -58 -26 -26 -46 -21 -73 14
-20 27 -21 41 -24 369 -4 372 -6 358 55 358 23 0 37 -7 48 -23z m-907 -209 c7
-7 12 -31 12 -55 l0 -44 31 23 c63 47 157 20 200 -56 20 -34 24 -56 24 -126 0
-206 -106 -322 -242 -265 l-36 15 6 -92 c3 -51 12 -111 19 -133 20 -54 14 -65
-33 -65 -37 0 -41 3 -56 38 -14 32 -15 80 -10 386 6 307 9 351 23 367 20 22
45 24 62 7z m-299 -58 c50 -25 105 -89 119 -139 15 -47 15 -143 2 -191 -24
-87 -102 -150 -185 -150 -64 0 -111 25 -150 79 -28 40 -30 48 -30 134 1 74 5
102 23 141 31 68 64 110 104 129 44 22 71 21 117 -3z m1487 -6 c90 -37 141
-99 131 -161 -15 -89 -113 -162 -203 -149 -43 6 -45 5 -39 -17 9 -29 42 -57
69 -57 11 0 50 14 85 30 70 33 101 32 101 -4 0 -57 -100 -102 -210 -94 -105 8
-146 70 -138 207 6 93 40 184 84 229 36 36 63 40 120 16z m-592 -8 c18 -8 45
-29 58 -47 45 -60 53 -102 51 -264 -2 -130 -4 -151 -19 -162 -10 -7 -24 -13
-31 -13 -14 0 -48 30 -54 48 -3 6 -20 6 -54 -1 -74 -15 -140 -2 -181 36 -49
47 -53 77 -14 120 46 53 103 77 183 77 l67 0 0 50 c0 41 -5 56 -25 76 -21 21
-31 24 -58 19 -43 -10 -64 -30 -71 -71 -6 -28 -11 -34 -31 -34 -52 0 -67 68
-29 128 31 48 138 67 208 38z"/>
<path d="M1293 1456 c-41 -35 -82 -115 -95 -186 l-10 -62 38 -39 c23 -23 47
-39 62 -39 54 0 93 94 91 219 -1 73 -10 101 -35 118 -19 12 -25 11 -51 -11z"/>
<path d="M803 1448 c-51 -55 -70 -198 -35 -268 32 -64 114 -63 149 2 14 25 18
56 18 130 0 82 -3 101 -21 125 -29 38 -81 43 -111 11z"/>
<path d="M2315 1440 c-26 -28 -36 -95 -18 -120 15 -21 53 -26 82 -10 39 21 50
100 19 137 -16 20 -63 15 -83 -7z"/>
<path d="M1696 1249 c-52 -12 -68 -27 -64 -58 2 -19 11 -28 35 -34 44 -13 126
26 131 62 6 40 -23 48 -102 30z"/>
</g>
</svg>
